<svg width="64" height="64" viewBox="0 0 64 64" fill="none" xmlns="http://www.w3.org/2000/svg">
<g id="writing-hand-2 1">
<path id="Vector" opacity="0.15" d="M9.05664 60.219C9.05664 60.4776 9.6168 60.7337 10.7051 60.9726C11.7935 61.2115 13.3887 61.4285 15.3997 61.6114C17.4107 61.7942 19.7981 61.9393 22.4256 62.0382C25.053 62.1372 27.8692 62.1881 30.7131 62.1881C33.5571 62.1881 36.3732 62.1372 39.0007 62.0382C41.6282 61.9393 44.0156 61.7942 46.0266 61.6114C48.0376 61.4285 49.6328 61.2115 50.7211 60.9726C51.8095 60.7337 52.3696 60.4776 52.3696 60.219C52.3696 59.9605 51.8095 59.7044 50.7211 59.4655C49.6328 59.2266 48.0376 59.0096 46.0266 58.8267C44.0156 58.6439 41.6282 58.4988 39.0007 58.3999C36.3732 58.3009 33.5571 58.25 30.7131 58.25C27.8692 58.25 25.053 58.3009 22.4256 58.3999C19.7981 58.4988 17.4107 58.6439 15.3997 58.8267C13.3887 59.0096 11.7935 59.2266 10.7051 59.4655C9.6168 59.7044 9.05664 59.9605 9.05664 60.219Z" fill="#45413C"/>
<path id="Vector_2" d="M27.6694 23.981L47.0554 33.09L45.5454 47.75L42.2374 49.417C40.8502 50.1365 39.3276 50.5573 37.7678 50.6522C36.208 50.7471 34.6456 50.514 33.1814 49.968L31.2124 49.233C29.3699 48.5449 27.3837 48.3327 25.4374 48.616L22.3004 49.062C21.5947 49.1614 20.8752 49.0674 20.2186 48.79C19.5621 48.5126 18.9931 48.0623 18.5724 47.487C18.4624 47.3305 18.3878 47.1518 18.354 46.9636C18.3203 46.7753 18.328 46.5819 18.3768 46.3969C18.4256 46.2119 18.5142 46.0398 18.6364 45.8927C18.7586 45.7455 18.9115 45.6268 19.0844 45.545L25.9484 42.356L17.4824 36.003L27.6694 23.981Z" fill="#FFB59E" stroke="#45413C" stroke-linecap="round" stroke-linejoin="round"/>
<path id="Vector_3" d="M14.0712 51.149L8.37515 55.218C8.26374 55.2931 8.13196 55.3321 7.99762 55.3299C7.86329 55.3277 7.73288 55.2842 7.62403 55.2055C7.51518 55.1267 7.43313 55.0165 7.38898 54.8896C7.34482 54.7627 7.3407 54.6253 7.37715 54.496L9.24115 47.75C9.27999 47.6069 9.34696 47.4729 9.43815 47.356L36.1742 9.68799C36.375 9.40525 36.6795 9.21343 37.0212 9.15441C37.3629 9.09539 37.7141 9.17397 37.9982 9.37299L40.8072 11.368C41.0933 11.5582 41.2935 11.8531 41.3647 12.1892C41.4359 12.5254 41.3725 12.876 41.1882 13.166L14.3862 50.847C14.2987 50.9645 14.1923 51.0666 14.0712 51.149Z" fill="#009FD9"/>
<path id="Vector_4" d="M11.4067 50.3751C11.4552 50.2213 11.526 50.0754 11.6167 49.9421L39.6257 10.4881L37.9987 9.33306C37.8557 9.23643 37.6951 9.16893 37.526 9.13443C37.357 9.09992 37.1827 9.09908 37.0133 9.13196C36.8439 9.16484 36.6827 9.23079 36.5388 9.32604C36.3949 9.42129 36.2712 9.54397 36.1747 9.68706L9.43772 47.3301C9.34653 47.447 9.27956 47.5809 9.24072 47.7241L7.31172 54.4961C7.27527 54.6254 7.27939 54.7628 7.32355 54.8896C7.3677 55.0165 7.44975 55.1268 7.5586 55.2056C7.66745 55.2843 7.79786 55.3277 7.93219 55.33C8.06653 55.3322 8.19831 55.2931 8.30972 55.2181L10.3307 53.7871L11.4067 50.3751Z" fill="#00B8F0"/>
<path id="Vector_5" d="M14.0712 51.149L8.37515 55.218C8.26374 55.2931 8.13196 55.3321 7.99762 55.3299C7.86329 55.3277 7.73288 55.2842 7.62403 55.2055C7.51518 55.1267 7.43313 55.0165 7.38898 54.8896C7.34482 54.7627 7.3407 54.6253 7.37715 54.496L9.24115 47.75C9.27999 47.6069 9.34696 47.4729 9.43815 47.356L36.1742 9.68799C36.375 9.40525 36.6795 9.21343 37.0212 9.15441C37.3629 9.09539 37.7141 9.17397 37.9982 9.37299L40.8072 11.368C41.0933 11.5582 41.2935 11.8531 41.3647 12.1892C41.4359 12.5254 41.3725 12.876 41.1882 13.166L14.3862 50.847C14.2987 50.9645 14.1923 51.0666 14.0712 51.149Z" stroke="#45413C" stroke-linecap="round" stroke-linejoin="round"/>
<path id="Vector_6" d="M17.8378 35.4779L16.0528 43.0379C15.8172 44.0325 15.2101 44.8993 14.3559 45.4606C13.5017 46.022 12.4652 46.2353 11.4588 46.0569C11.1951 46.0259 10.9401 45.9432 10.7084 45.8137C10.4767 45.6841 10.2728 45.5102 10.1084 45.3018C9.94392 45.0934 9.82212 44.8546 9.74995 44.5992C9.67778 44.3437 9.65664 44.0765 9.68775 43.8129L10.5668 35.3599C10.6897 34.182 11.1175 33.0566 11.8081 32.0946C12.4987 31.1325 13.4281 30.3671 14.5048 29.8739L25.1618 25.0569L17.8378 35.4779Z" fill="#FFB59E"/>
<path id="Vector_7" d="M13.7961 33.9819L20.6471 31.5279L25.2141 25.0969L14.5571 29.9139C13.4805 30.4072 12.5511 31.1726 11.8605 32.1346C11.1699 33.0966 10.7421 34.2221 10.6191 35.3999V36.0169C11.5198 35.1192 12.6029 34.4255 13.7951 33.9829L13.7961 33.9819Z" fill="#FFCEBF"/>
<path id="Vector_8" d="M17.8378 35.4779L16.0528 43.0379C15.8172 44.0325 15.2101 44.8993 14.3559 45.4606C13.5017 46.022 12.4652 46.2353 11.4588 46.0569C11.1951 46.0259 10.9401 45.9432 10.7084 45.8137C10.4767 45.6841 10.2728 45.5102 10.1084 45.3018C9.94392 45.0934 9.82212 44.8546 9.74995 44.5992C9.67778 44.3437 9.65664 44.0765 9.68775 43.8129L10.5668 35.3599C10.6897 34.182 11.1175 33.0566 11.8081 32.0946C12.4987 31.1325 13.4281 30.3671 14.5048 29.8739L25.1618 25.0569L17.8378 35.4779Z" stroke="#45413C" stroke-linecap="round" stroke-linejoin="round"/>
<path id="Vector_9" d="M25.1624 35.6489L15.3974 40.4659C14.7792 40.7737 14.3071 41.3128 14.0836 41.9662C13.8601 42.6197 13.9032 43.3349 14.2034 43.9569C14.8022 45.1734 15.8485 46.1111 17.1231 46.5736C18.3977 47.036 19.8018 46.9874 21.0414 46.4379L24.6244 44.8109C25.31 44.493 26.0628 44.3472 26.8175 44.3861C27.5722 44.4249 28.3061 44.6473 28.9554 45.0339L30.0054 45.6509C34.3585 48.2047 39.5186 49.0114 44.4434 47.9079C46.1578 47.5292 47.9453 47.6571 49.5884 48.2759L55.7044 50.5989C55.904 50.6758 56.1194 50.7028 56.3317 50.6775C56.5441 50.6522 56.7471 50.5753 56.9231 50.4537C57.099 50.3321 57.2426 50.1693 57.3413 49.9795C57.44 49.7898 57.4908 49.5788 57.4894 49.3649V36.2399C57.4894 35.8917 57.3511 35.5577 57.1048 35.3115C56.8586 35.0652 56.5246 34.9269 56.1764 34.9269H55.0734C52.2878 34.9254 49.5365 34.3116 47.0144 33.1289L32.0004 26.0149L25.1624 35.6489Z" fill="#FFCEBF"/>
<path id="Vector_10" d="M56.2159 34.8869H55.1129C52.3272 34.8854 49.576 34.2716 47.0539 33.0889L31.9999 26.0149L28.7969 30.5169L45.6629 37.5259C48.5776 38.7234 51.6998 39.3344 54.8509 39.3239H56.1639C56.5344 39.3023 56.8985 39.4283 57.1764 39.6743C57.4543 39.9204 57.6234 40.2665 57.6469 40.6369V36.1999C57.6476 36.0171 57.6102 35.8361 57.5369 35.6686C57.4637 35.5011 57.3563 35.3507 57.2216 35.2271C57.0869 35.1035 56.9278 35.0094 56.7546 34.9508C56.5815 34.8922 56.398 34.8705 56.2159 34.8869Z" fill="#FFDCD1"/>
<path id="Vector_11" d="M17.0112 41.7649C19.5707 40.6713 21.8239 38.9681 23.5742 36.8039L24.0202 36.2529L15.4632 40.4659C14.9835 40.7039 14.588 41.083 14.3299 41.5522C14.0718 42.0214 13.9634 42.5583 14.0192 43.0909L17.0112 41.7649Z" fill="#FFDCD1"/>
<path id="Vector_12" d="M25.1624 35.6489L15.3974 40.4659C14.7792 40.7737 14.3071 41.3128 14.0836 41.9662C13.8601 42.6197 13.9032 43.3349 14.2034 43.9569C14.8022 45.1734 15.8485 46.1111 17.1231 46.5736C18.3977 47.036 19.8018 46.9874 21.0414 46.4379L24.6244 44.8109C25.31 44.493 26.0628 44.3472 26.8175 44.3861C27.5722 44.4249 28.3061 44.6473 28.9554 45.0339L30.0054 45.6509C34.3585 48.2047 39.5186 49.0114 44.4434 47.9079C46.1578 47.5292 47.9453 47.6571 49.5884 48.2759L55.7044 50.5989C55.904 50.6758 56.1194 50.7028 56.3317 50.6775C56.5441 50.6522 56.7471 50.5753 56.9231 50.4537C57.099 50.3321 57.2426 50.1693 57.3413 49.9795C57.44 49.7898 57.4908 49.5788 57.4894 49.3649V36.2399C57.4894 35.8917 57.3511 35.5577 57.1048 35.3115C56.8586 35.0652 56.5246 34.9269 56.1764 34.9269H55.0734C52.2878 34.9254 49.5365 34.3116 47.0144 33.1289L32.0004 26.0149L25.1624 35.6489Z" stroke="#45413C" stroke-linecap="round" stroke-linejoin="round"/>
</g>
</svg>
