<svg width="42" height="42" viewBox="0 0 42 42" fill="none" xmlns="http://www.w3.org/2000/svg">
<g clip-path="url(#clip0_23_1715)">
<path d="M21 42C32.598 42 42 32.598 42 21C42 9.40202 32.598 0 21 0C9.40202 0 0 9.40202 0 21C0 32.598 9.40202 42 21 42Z" fill="#2E60FF"/>
<path d="M21 10.1185C21.798 10.1185 22.5505 10.43 23.114 10.9935C23.6775 11.557 23.989 12.3095 23.989 13.1075C23.989 13.9055 23.6775 14.658 23.114 15.2215L21 17.3355L18.886 15.2215C17.7205 14.056 17.7205 12.1555 18.886 10.99C19.4495 10.4265 20.202 10.115 21 10.115M21 5.2255C18.984 5.2255 16.968 5.9955 15.428 7.532C12.3515 10.6085 12.3515 15.5995 15.428 18.676L21 24.248L26.572 18.676C29.6485 15.5995 29.6485 10.6085 26.572 7.532C25.032 5.992 23.016 5.2255 21 5.2255Z" fill="white"/>
<path d="M26.572 22.9145L21 17.3425L17.5455 20.797L22.6485 25.9L23.1175 26.369C23.681 26.9325 23.9925 27.685 23.9925 28.483C23.9925 29.281 23.681 30.0335 23.1175 30.597C22.554 31.1605 21.8015 31.472 21.0035 31.472C20.2055 31.472 19.453 31.1605 18.8895 30.597C17.766 29.4735 17.7345 27.671 18.781 26.4985L15.3195 23.037C12.362 26.124 12.397 31.017 15.435 34.055C16.975 35.595 18.991 36.3615 21.007 36.3615C23.023 36.3615 25.039 35.5915 26.579 34.055C29.6555 30.9785 29.6555 25.9875 26.579 22.911L26.572 22.9145Z" fill="white"/>
</g>
<defs>
<clipPath id="clip0_23_1715">
<rect width="42" height="42" fill="white"/>
</clipPath>
</defs>
</svg>
